<svg xmlns="http://www.w3.org/2000/svg" version="1.1" viewBox="0 0 33 31">
    <path d="M29.867 9.356l-5.003 5.003c-0.094 0.094-0.235 0.141-0.36 0.141-0.266 0-0.5-0.219-0.5-0.5v-3.002h-4.002c-2.079 0-3.064 1.423-3.94 3.111-0.453 0.875-0.844 1.782-1.219 2.673-1.735 4.033-3.768 8.223-8.849 8.223h-3.502c-0.281 0-0.5-0.219-0.5-0.5v-3.002c0-0.281 0.219-0.5 0.5-0.5h3.502c2.079 0 3.064-1.423 3.94-3.111 0.453-0.875 0.844-1.782 1.219-2.673 1.735-4.033 3.768-8.223 8.849-8.223h4.002v-3.002c0-0.281 0.219-0.5 0.5-0.5 0.141 0 0.266 0.063 0.375 0.156l4.987 4.987c0.094 0.094 0.141 0.235 0.141 0.36s-0.047 0.266-0.141 0.36zM10.262 14.781c-0.907-1.892-1.907-3.783-4.268-3.783h-3.502c-0.281 0-0.5-0.219-0.5-0.5v-3.002c0-0.281 0.219-0.5 0.5-0.5h3.502c2.783 0 4.831 1.298 6.41 3.518-0.876 1.344-1.517 2.798-2.142 4.268zM29.867 23.363l-5.003 5.003c-0.094 0.094-0.235 0.141-0.36 0.141-0.266 0-0.5-0.235-0.5-0.5v-3.002c-4.643 0-7.504 0.547-10.396-3.518 0.86-1.344 1.501-2.798 2.126-4.268 0.907 1.892 1.907 3.783 4.268 3.783h4.002v-3.002c0-0.281 0.219-0.5 0.5-0.5 0.141 0 0.266 0.063 0.375 0.156l4.987 4.987c0.094 0.094 0.141 0.235 0.141 0.36s-0.047 0.266-0.141 0.36z"></path>
</svg>