<svg xmlns="http://www.w3.org/2000/svg" version="1.1" viewBox="0 0 38 32">
    <path d="M2.072 21.577c0.71-0.197 1.125-0.932 0.928-1.641-0.221-0.796-0.333-1.622-0.333-2.457 0-5.049 4.108-9.158 9.158-9.158h5.428c0.056-0.922 0.221-1.816 0.482-2.667h-5.911c-3.158 0-6.128 1.23-8.361 3.463s-3.463 5.203-3.463 8.361c0 1.076 0.145 2.143 0.431 3.171 0.164 0.59 0.7 0.976 1.284 0.976 0.117 0 0.238-0.016 0.357-0.049zM21.394 25.613h-12.409v-2.362c0-0.758-0.528-1.052-1.172-0.652l-5.685 3.522c-0.644 0.4-0.651 1.063-0.014 1.474l5.712 3.69c0.637 0.411 1.158 0.127 1.158-0.63v-2.374h12.409c3.158 0 6.128-1.23 8.361-3.463 1.424-1.424 2.44-3.148 2.99-5.029-0.985 0.368-2.033 0.606-3.125 0.691-1.492 3.038-4.619 5.135-8.226 5.135zM28.718 0c-4.985 0-9.026 4.041-9.026 9.026s4.041 9.026 9.026 9.026 9.026-4.041 9.026-9.026-4.041-9.026-9.026-9.026zM30.392 13.827h-1.728v-6.822c-0.635 0.576-1.433 1.004-2.407 1.285v-1.713c0.473-0.118 0.975-0.325 1.506-0.62 0.532-0.325 0.975-0.665 1.329-1.034h1.3v8.904z"></path>
</svg>