<svg xmlns="http://www.w3.org/2000/svg" version="1.1" viewBox="0 0 32 32">
    <path d="M25.468 6.947c-0.326-0.172-0.724-0.151-1.030 0.057l-6.438 4.38v-3.553c0-0.371-0.205-0.71-0.532-0.884-0.326-0.172-0.724-0.151-1.030 0.057l-12 8.164c-0.274 0.186-0.438 0.496-0.438 0.827s0.164 0.641 0.438 0.827l12 8.168c0.169 0.115 0.365 0.174 0.562 0.174 0.16 0 0.321-0.038 0.468-0.116 0.327-0.173 0.532-0.514 0.532-0.884v-3.556l6.438 4.382c0.169 0.115 0.365 0.174 0.562 0.174 0.16 0 0.321-0.038 0.468-0.116 0.327-0.173 0.532-0.514 0.532-0.884v-16.333c0-0.371-0.205-0.71-0.532-0.884z"></path>
</svg>